<?xml version="1.0" encoding="us-ascii" standalone="no"?><svg xmlns="http://www.w3.org/2000/svg" xmlns:xlink="http://www.w3.org/1999/xlink" contentStyleType="text/css" height="1139px" preserveAspectRatio="none" style="width:2522px;height:1139px;background:#FFFFFF;" version="1.1" viewBox="0 0 2522 1139" width="2522px" zoomAndPan="magnify"><defs/><g><!--cluster conexion--><g id="cluster_conexion"><path d="M1521.5,564 L1594.5,564 A3.75,3.75 0 0 1 1597,566.5 L1604,586.2969 L1952.5,586.2969 A2.5,2.5 0 0 1 1955,588.7969 L1955,1037.5 A2.5,2.5 0 0 1 1952.5,1040 L1521.5,1040 A2.5,2.5 0 0 1 1519,1037.5 L1519,566.5 A2.5,2.5 0 0 1 1521.5,564 " fill="none" style="stroke:#000000;stroke-width:1.5;"/><line style="stroke:#000000;stroke-width:1.5;" x1="1519" x2="1604" y1="586.2969" y2="586.2969"/><text fill="#000000" font-family="sans-serif" font-size="14" font-weight="bold" lengthAdjust="spacing" textLength="72" x="1523" y="578.9951">conexion</text></g><!--cluster controllers--><g id="cluster_controllers"><path d="M8.5,252 L95.5,252 A3.75,3.75 0 0 1 98,254.5 L105,274.2969 L897.5,274.2969 A2.5,2.5 0 0 1 900,276.7969 L900,734 A2.5,2.5 0 0 1 897.5,736.5 L8.5,736.5 A2.5,2.5 0 0 1 6,734 L6,254.5 A2.5,2.5 0 0 1 8.5,252 " fill="none" style="stroke:#000000;stroke-width:1.5;"/><line style="stroke:#000000;stroke-width:1.5;" x1="6" x2="105" y1="274.2969" y2="274.2969"/><text fill="#000000" font-family="sans-serif" font-size="14" font-weight="bold" lengthAdjust="spacing" textLength="86" x="10" y="266.9951">controllers</text></g><!--cluster principal--><g id="cluster_principal"><path d="M348.5,80 L416.5,80 A3.75,3.75 0 0 1 419,82.5 L426,102.2969 L569.5,102.2969 A2.5,2.5 0 0 1 572,104.7969 L572,225.5 A2.5,2.5 0 0 1 569.5,228 L348.5,228 A2.5,2.5 0 0 1 346,225.5 L346,82.5 A2.5,2.5 0 0 1 348.5,80 " fill="none" style="stroke:#000000;stroke-width:1.5;"/><line style="stroke:#000000;stroke-width:1.5;" x1="346" x2="426" y1="102.2969" y2="102.2969"/><text fill="#000000" font-family="sans-serif" font-size="14" font-weight="bold" lengthAdjust="spacing" textLength="67" x="350" y="94.9951">principal</text></g><!--cluster utils--><g id="cluster_utils"><path d="M1981.5,556 L2015.5,556 A3.75,3.75 0 0 1 2018,558.5 L2025,578.2969 L2398.5,578.2969 A2.5,2.5 0 0 1 2401,580.7969 L2401,815.5 A2.5,2.5 0 0 1 2398.5,818 L1981.5,818 A2.5,2.5 0 0 1 1979,815.5 L1979,558.5 A2.5,2.5 0 0 1 1981.5,556 " fill="none" style="stroke:#000000;stroke-width:1.5;"/><line style="stroke:#000000;stroke-width:1.5;" x1="1979" x2="2025" y1="578.2969" y2="578.2969"/><text fill="#000000" font-family="sans-serif" font-size="14" font-weight="bold" lengthAdjust="spacing" textLength="33" x="1983" y="570.9951">utils</text></g><!--class Cliente--><g id="elem_Cliente"><rect codeLine="2" fill="#F1F1F1" height="194.6719" id="Cliente" rx="2.5" ry="2.5" style="stroke:#181818;stroke-width:0.5;" width="403" x="1535.5" y="599"/><ellipse cx="1708.75" cy="615" fill="#ADD1B2" rx="11" ry="11" style="stroke:#181818;stroke-width:1.0;"/><path d="M1708.2188,621.9219 Q1706.4688,621.9219 1705.3281,621.1875 Q1704.2031,620.4375 1703.6406,619.0938 Q1703.0938,617.7344 1703.0938,615.9375 Q1703.0938,613.9063 1703.75,612.4531 Q1704.4063,611 1705.6875,610.2188 Q1706.9688,609.4375 1708.8438,609.4375 Q1709.7344,609.4375 1710.4063,609.625 Q1711.0781,609.7969 1711.7656,610.1406 L1710.9531,612.1563 Q1710.3281,611.8438 1709.7813,611.7188 Q1709.25,611.5938 1708.7656,611.5938 Q1707.5938,611.5938 1706.8906,612.125 Q1706.1875,612.6563 1705.8906,613.6094 Q1705.5938,614.5625 1705.5938,615.8281 Q1705.5938,617.8438 1706.3125,618.8125 Q1707.0313,619.7656 1708.625,619.7656 Q1709.2188,619.7656 1709.8438,619.6094 Q1710.4688,619.4531 1711.2969,619.0781 L1711.2969,621.2969 Q1710.5625,621.6094 1709.7656,621.7656 Q1708.9844,621.9219 1708.2188,621.9219 Z " fill="#000000"/><text fill="#000000" font-family="sans-serif" font-size="14" lengthAdjust="spacing" textLength="48" x="1729.25" y="619.8467">Cliente</text><line style="stroke:#181818;stroke-width:0.5;" x1="1536.5" x2="1937.5" y1="631" y2="631"/><rect fill="none" height="6" style="stroke:#C82930;stroke-width:1.0;" width="6" x="1543.5" y="641.6484"/><text fill="#000000" font-family="sans-serif" font-size="14" lengthAdjust="spacing" textLength="118" x="1555.5" y="647.9951">instancia: Cliente</text><line style="stroke:#181818;stroke-width:0.5;" x1="1536.5" x2="1937.5" y1="655.2969" y2="655.2969"/><rect fill="#F24D5C" height="6" style="stroke:#C82930;stroke-width:1.0;" width="6" x="1543.5" y="665.9453"/><text fill="#000000" font-family="sans-serif" font-size="14" lengthAdjust="spacing" textLength="58" x="1555.5" y="672.292">Cliente()</text><ellipse cx="1546.5" cy="685.2422" fill="#84BE84" rx="3" ry="3" style="stroke:#038048;stroke-width:1.0;"/><text fill="#000000" font-family="sans-serif" font-size="14" lengthAdjust="spacing" textLength="151" x="1555.5" y="688.5889">getInstancia(): Cliente</text><ellipse cx="1546.5" cy="701.5391" fill="#84BE84" rx="3" ry="3" style="stroke:#038048;stroke-width:1.0;"/><text fill="#000000" font-family="sans-serif" font-size="14" lengthAdjust="spacing" textLength="377" x="1555.5" y="704.8857">enviarSolicitud(metodo: String, mensaje: String): String</text><ellipse cx="1546.5" cy="717.8359" fill="#84BE84" rx="3" ry="3" style="stroke:#038048;stroke-width:1.0;"/><text fill="#000000" font-family="sans-serif" font-size="14" lengthAdjust="spacing" textLength="190" x="1555.5" y="721.1826">get(mensaje: String): String</text><ellipse cx="1546.5" cy="734.1328" fill="#84BE84" rx="3" ry="3" style="stroke:#038048;stroke-width:1.0;"/><text fill="#000000" font-family="sans-serif" font-size="14" lengthAdjust="spacing" textLength="198" x="1555.5" y="737.4795">post(mensaje: String): String</text><ellipse cx="1546.5" cy="750.4297" fill="#84BE84" rx="3" ry="3" style="stroke:#038048;stroke-width:1.0;"/><text fill="#000000" font-family="sans-serif" font-size="14" lengthAdjust="spacing" textLength="206" x="1555.5" y="753.7764">patch(mensaje: String): String</text><ellipse cx="1546.5" cy="766.7266" fill="#84BE84" rx="3" ry="3" style="stroke:#038048;stroke-width:1.0;"/><text fill="#000000" font-family="sans-serif" font-size="14" lengthAdjust="spacing" textLength="211" x="1555.5" y="770.0732">delete(mensaje: String): String</text><ellipse cx="1546.5" cy="783.0234" fill="#84BE84" rx="3" ry="3" style="stroke:#038048;stroke-width:1.0;"/><text fill="#000000" font-family="sans-serif" font-size="14" lengthAdjust="spacing" textLength="152" x="1555.5" y="786.3701">cerrarConexion(): void</text></g><!--class Conexion--><g id="elem_Conexion"><rect codeLine="14" fill="#F1F1F1" height="162.0781" id="Conexion" rx="2.5" ry="2.5" style="stroke:#181818;stroke-width:0.5;" width="277" x="1598.5" y="862"/><ellipse cx="1700.25" cy="878" fill="#ADD1B2" rx="11" ry="11" style="stroke:#181818;stroke-width:1.0;"/><path d="M1699.7188,884.9219 Q1697.9688,884.9219 1696.8281,884.1875 Q1695.7031,883.4375 1695.1406,882.0938 Q1694.5938,880.7344 1694.5938,878.9375 Q1694.5938,876.9063 1695.25,875.4531 Q1695.9063,874 1697.1875,873.2188 Q1698.4688,872.4375 1700.3438,872.4375 Q1701.2344,872.4375 1701.9063,872.625 Q1702.5781,872.7969 1703.2656,873.1406 L1702.4531,875.1563 Q1701.8281,874.8438 1701.2813,874.7188 Q1700.75,874.5938 1700.2656,874.5938 Q1699.0938,874.5938 1698.3906,875.125 Q1697.6875,875.6563 1697.3906,876.6094 Q1697.0938,877.5625 1697.0938,878.8281 Q1697.0938,880.8438 1697.8125,881.8125 Q1698.5313,882.7656 1700.125,882.7656 Q1700.7188,882.7656 1701.3438,882.6094 Q1701.9688,882.4531 1702.7969,882.0781 L1702.7969,884.2969 Q1702.0625,884.6094 1701.2656,884.7656 Q1700.4844,884.9219 1699.7188,884.9219 Z " fill="#000000"/><text fill="#000000" font-family="sans-serif" font-size="14" lengthAdjust="spacing" textLength="65" x="1720.75" y="882.8467">Conexion</text><line style="stroke:#181818;stroke-width:0.5;" x1="1599.5" x2="1874.5" y1="894" y2="894"/><rect fill="none" height="6" style="stroke:#C82930;stroke-width:1.0;" width="6" x="1606.5" y="904.6484"/><text fill="#000000" font-family="sans-serif" font-size="14" lengthAdjust="spacing" textLength="183" x="1618.5" y="910.9951">PUERTO = 8080: const int</text><rect fill="none" height="6" style="stroke:#C82930;stroke-width:1.0;" width="6" x="1606.5" y="920.9453"/><text fill="#000000" font-family="sans-serif" font-size="14" lengthAdjust="spacing" textLength="223" x="1618.5" y="927.292">HOST = "localhost": const String</text><polygon fill="none" points="1609.5,935.2422,1613.5,939.2422,1609.5,943.2422,1605.5,939.2422" style="stroke:#B38D22;stroke-width:1.0;"/><text fill="#000000" font-family="sans-serif" font-size="14" lengthAdjust="spacing" textLength="192" x="1618.5" y="943.5889">serverSocket: ServerSocket</text><polygon fill="none" points="1609.5,951.5391,1613.5,955.5391,1609.5,959.5391,1605.5,955.5391" style="stroke:#B38D22;stroke-width:1.0;"/><text fill="#000000" font-family="sans-serif" font-size="14" lengthAdjust="spacing" textLength="104" x="1618.5" y="959.8857">socket: Socket</text><polygon fill="none" points="1609.5,967.8359,1613.5,971.8359,1609.5,975.8359,1605.5,971.8359" style="stroke:#B38D22;stroke-width:1.0;"/><text fill="#000000" font-family="sans-serif" font-size="14" lengthAdjust="spacing" textLength="251" x="1618.5" y="976.1826">mensajeDelServer: DataInputStream</text><polygon fill="none" points="1609.5,984.1328,1613.5,988.1328,1609.5,992.1328,1605.5,988.1328" style="stroke:#B38D22;stroke-width:1.0;"/><text fill="#000000" font-family="sans-serif" font-size="14" lengthAdjust="spacing" textLength="235" x="1618.5" y="992.4795">enviarAlSErver: DataOutputStream</text><line style="stroke:#181818;stroke-width:0.5;" x1="1599.5" x2="1874.5" y1="999.7813" y2="999.7813"/><ellipse cx="1609.5" cy="1013.4297" fill="#84BE84" rx="3" ry="3" style="stroke:#038048;stroke-width:1.0;"/><text fill="#000000" font-family="sans-serif" font-size="14" lengthAdjust="spacing" textLength="150" x="1618.5" y="1016.7764">Conexion(tipo: String)</text></g><!--class EditorTextoController--><g id="elem_EditorTextoController"><rect codeLine="26" fill="#F1F1F1" height="243.5625" id="EditorTextoController" rx="2.5" ry="2.5" style="stroke:#181818;stroke-width:0.5;" width="366" x="22" y="287"/><ellipse cx="127.75" cy="303" fill="#ADD1B2" rx="11" ry="11" style="stroke:#181818;stroke-width:1.0;"/><path d="M127.2188,309.9219 Q125.4688,309.9219 124.3281,309.1875 Q123.2031,308.4375 122.6406,307.0938 Q122.0938,305.7344 122.0938,303.9375 Q122.0938,301.9063 122.75,300.4531 Q123.4063,299 124.6875,298.2188 Q125.9688,297.4375 127.8438,297.4375 Q128.7344,297.4375 129.4063,297.625 Q130.0781,297.7969 130.7656,298.1406 L129.9531,300.1563 Q129.3281,299.8438 128.7813,299.7188 Q128.25,299.5938 127.7656,299.5938 Q126.5938,299.5938 125.8906,300.125 Q125.1875,300.6563 124.8906,301.6094 Q124.5938,302.5625 124.5938,303.8281 Q124.5938,305.8438 125.3125,306.8125 Q126.0313,307.7656 127.625,307.7656 Q128.2188,307.7656 128.8438,307.6094 Q129.4688,307.4531 130.2969,307.0781 L130.2969,309.2969 Q129.5625,309.6094 128.7656,309.7656 Q127.9844,309.9219 127.2188,309.9219 Z " fill="#000000"/><text fill="#000000" font-family="sans-serif" font-size="14" lengthAdjust="spacing" textLength="146" x="148.25" y="307.8467">EditorTextoController</text><line style="stroke:#181818;stroke-width:0.5;" x1="23" x2="387" y1="319" y2="319"/><rect fill="none" height="6" style="stroke:#C82930;stroke-width:1.0;" width="6" x="30" y="329.6484"/><text fill="#000000" font-family="sans-serif" font-size="14" lengthAdjust="spacing" textLength="127" x="42" y="335.9951">textArea: TextArea</text><rect fill="none" height="6" style="stroke:#C82930;stroke-width:1.0;" width="6" x="30" y="345.9453"/><text fill="#000000" font-family="sans-serif" font-size="14" lengthAdjust="spacing" textLength="190" x="42" y="352.292">mostrarReporteLabel: Label</text><rect fill="none" height="6" style="stroke:#C82930;stroke-width:1.0;" width="6" x="30" y="362.2422"/><text fill="#000000" font-family="sans-serif" font-size="14" lengthAdjust="spacing" textLength="140" x="42" y="368.5889">columnaLabel: Label</text><rect fill="none" height="6" style="stroke:#C82930;stroke-width:1.0;" width="6" x="30" y="378.5391"/><text fill="#000000" font-family="sans-serif" font-size="14" lengthAdjust="spacing" textLength="218" x="42" y="384.8857">numeroLinea: ListView&lt;String&gt;</text><rect fill="none" height="6" style="stroke:#C82930;stroke-width:1.0;" width="6" x="30" y="394.8359"/><text fill="#000000" font-family="sans-serif" font-size="14" lengthAdjust="spacing" textLength="84" x="42" y="401.1826">texto: String</text><ellipse cx="33" cy="414.1328" fill="none" rx="3" ry="3" style="stroke:#038048;stroke-width:1.0;"/><text fill="#000000" font-family="sans-serif" font-size="14" lengthAdjust="spacing" textLength="202" x="42" y="417.4795">getVerticalScrollBar: ScrollBar</text><line style="stroke:#181818;stroke-width:0.5;" x1="23" x2="387" y1="424.7813" y2="424.7813"/><ellipse cx="33" cy="438.4297" fill="#84BE84" rx="3" ry="3" style="stroke:#038048;stroke-width:1.0;"/><text fill="#000000" font-family="sans-serif" font-size="14" lengthAdjust="spacing" textLength="104" x="42" y="441.7764">inicialize(): void</text><ellipse cx="33" cy="454.7266" fill="#84BE84" rx="3" ry="3" style="stroke:#038048;stroke-width:1.0;"/><text fill="#000000" font-family="sans-serif" font-size="14" lengthAdjust="spacing" textLength="340" x="42" y="458.0732">actualizarNumeroColumna(event: KeyEvent): void</text><ellipse cx="33" cy="471.0234" fill="#84BE84" rx="3" ry="3" style="stroke:#038048;stroke-width:1.0;"/><text fill="#000000" font-family="sans-serif" font-size="14" lengthAdjust="spacing" textLength="203" x="42" y="474.3701">actualizarNumeroLinea(): void</text><ellipse cx="33" cy="487.3203" fill="#84BE84" rx="3" ry="3" style="stroke:#038048;stroke-width:1.0;"/><text fill="#000000" font-family="sans-serif" font-size="14" lengthAdjust="spacing" textLength="150" x="42" y="490.667">sicronizarScroll(): void</text><ellipse cx="33" cy="503.6172" fill="#84BE84" rx="3" ry="3" style="stroke:#038048;stroke-width:1.0;"/><text fill="#000000" font-family="sans-serif" font-size="14" lengthAdjust="spacing" textLength="154" x="42" y="506.9639">ocultarScrollBar(): void</text><ellipse cx="33" cy="519.9141" fill="#84BE84" rx="3" ry="3" style="stroke:#038048;stroke-width:1.0;"/><text fill="#000000" font-family="sans-serif" font-size="14" lengthAdjust="spacing" textLength="141" x="42" y="523.2607">obtenerTexto(): void</text></g><!--class ReporteAstController--><g id="elem_ReporteAstController"><rect codeLine="41" fill="#F1F1F1" height="48" id="ReporteAstController" rx="2.5" ry="2.5" style="stroke:#181818;stroke-width:0.5;" width="177" x="683.5" y="672.5"/><ellipse cx="698.5" cy="688.5" fill="#ADD1B2" rx="11" ry="11" style="stroke:#181818;stroke-width:1.0;"/><path d="M697.9688,695.4219 Q696.2188,695.4219 695.0781,694.6875 Q693.9531,693.9375 693.3906,692.5938 Q692.8438,691.2344 692.8438,689.4375 Q692.8438,687.4063 693.5,685.9531 Q694.1563,684.5 695.4375,683.7188 Q696.7188,682.9375 698.5938,682.9375 Q699.4844,682.9375 700.1563,683.125 Q700.8281,683.2969 701.5156,683.6406 L700.7031,685.6563 Q700.0781,685.3438 699.5313,685.2188 Q699,685.0938 698.5156,685.0938 Q697.3438,685.0938 696.6406,685.625 Q695.9375,686.1563 695.6406,687.1094 Q695.3438,688.0625 695.3438,689.3281 Q695.3438,691.3438 696.0625,692.3125 Q696.7813,693.2656 698.375,693.2656 Q698.9688,693.2656 699.5938,693.1094 Q700.2188,692.9531 701.0469,692.5781 L701.0469,694.7969 Q700.3125,695.1094 699.5156,695.2656 Q698.7344,695.4219 697.9688,695.4219 Z " fill="#000000"/><text fill="#000000" font-family="sans-serif" font-size="14" lengthAdjust="spacing" textLength="145" x="712.5" y="693.3467">ReporteAstController</text><line style="stroke:#181818;stroke-width:0.5;" x1="684.5" x2="859.5" y1="704.5" y2="704.5"/><line style="stroke:#181818;stroke-width:0.5;" x1="684.5" x2="859.5" y1="712.5" y2="712.5"/></g><!--class ReporteDomController--><g id="elem_ReporteDomController"><rect codeLine="45" fill="#F1F1F1" height="48" id="ReporteDomController" rx="2.5" ry="2.5" style="stroke:#181818;stroke-width:0.5;" width="188" x="237" y="672.5"/><ellipse cx="252" cy="688.5" fill="#ADD1B2" rx="11" ry="11" style="stroke:#181818;stroke-width:1.0;"/><path d="M251.4688,695.4219 Q249.7188,695.4219 248.5781,694.6875 Q247.4531,693.9375 246.8906,692.5938 Q246.3438,691.2344 246.3438,689.4375 Q246.3438,687.4063 247,685.9531 Q247.6563,684.5 248.9375,683.7188 Q250.2188,682.9375 252.0938,682.9375 Q252.9844,682.9375 253.6563,683.125 Q254.3281,683.2969 255.0156,683.6406 L254.2031,685.6563 Q253.5781,685.3438 253.0313,685.2188 Q252.5,685.0938 252.0156,685.0938 Q250.8438,685.0938 250.1406,685.625 Q249.4375,686.1563 249.1406,687.1094 Q248.8438,688.0625 248.8438,689.3281 Q248.8438,691.3438 249.5625,692.3125 Q250.2813,693.2656 251.875,693.2656 Q252.4688,693.2656 253.0938,693.1094 Q253.7188,692.9531 254.5469,692.5781 L254.5469,694.7969 Q253.8125,695.1094 253.0156,695.2656 Q252.2344,695.4219 251.4688,695.4219 Z " fill="#000000"/><text fill="#000000" font-family="sans-serif" font-size="14" lengthAdjust="spacing" textLength="156" x="266" y="693.3467">ReporteDomController</text><line style="stroke:#181818;stroke-width:0.5;" x1="238" x2="424" y1="704.5" y2="704.5"/><line style="stroke:#181818;stroke-width:0.5;" x1="238" x2="424" y1="712.5" y2="712.5"/></g><!--class ReporteErrorController--><g id="elem_ReporteErrorController"><rect codeLine="49" fill="#F1F1F1" height="48" id="ReporteErrorController" rx="2.5" ry="2.5" style="stroke:#181818;stroke-width:0.5;" width="188" x="460" y="672.5"/><ellipse cx="475" cy="688.5" fill="#ADD1B2" rx="11" ry="11" style="stroke:#181818;stroke-width:1.0;"/><path d="M474.4688,695.4219 Q472.7188,695.4219 471.5781,694.6875 Q470.4531,693.9375 469.8906,692.5938 Q469.3438,691.2344 469.3438,689.4375 Q469.3438,687.4063 470,685.9531 Q470.6563,684.5 471.9375,683.7188 Q473.2188,682.9375 475.0938,682.9375 Q475.9844,682.9375 476.6563,683.125 Q477.3281,683.2969 478.0156,683.6406 L477.2031,685.6563 Q476.5781,685.3438 476.0313,685.2188 Q475.5,685.0938 475.0156,685.0938 Q473.8438,685.0938 473.1406,685.625 Q472.4375,686.1563 472.1406,687.1094 Q471.8438,688.0625 471.8438,689.3281 Q471.8438,691.3438 472.5625,692.3125 Q473.2813,693.2656 474.875,693.2656 Q475.4688,693.2656 476.0938,693.1094 Q476.7188,692.9531 477.5469,692.5781 L477.5469,694.7969 Q476.8125,695.1094 476.0156,695.2656 Q475.2344,695.4219 474.4688,695.4219 Z " fill="#000000"/><text fill="#000000" font-family="sans-serif" font-size="14" lengthAdjust="spacing" textLength="156" x="489" y="693.3467">ReporteErrorController</text><line style="stroke:#181818;stroke-width:0.5;" x1="461" x2="647" y1="704.5" y2="704.5"/><line style="stroke:#181818;stroke-width:0.5;" x1="461" x2="647" y1="712.5" y2="712.5"/></g><!--class VentanaPrincipalController--><g id="elem_VentanaPrincipalController"><rect codeLine="53" fill="#F1F1F1" height="210.9688" id="VentanaPrincipalController" rx="2.5" ry="2.5" style="stroke:#181818;stroke-width:0.5;" width="262" x="423" y="303.5"/><ellipse cx="460.05" cy="319.5" fill="#ADD1B2" rx="11" ry="11" style="stroke:#181818;stroke-width:1.0;"/><path d="M459.5188,326.4219 Q457.7688,326.4219 456.6281,325.6875 Q455.5031,324.9375 454.9406,323.5938 Q454.3938,322.2344 454.3938,320.4375 Q454.3938,318.4063 455.05,316.9531 Q455.7063,315.5 456.9875,314.7188 Q458.2688,313.9375 460.1438,313.9375 Q461.0344,313.9375 461.7063,314.125 Q462.3781,314.2969 463.0656,314.6406 L462.2531,316.6563 Q461.6281,316.3438 461.0813,316.2188 Q460.55,316.0938 460.0656,316.0938 Q458.8938,316.0938 458.1906,316.625 Q457.4875,317.1563 457.1906,318.1094 Q456.8938,319.0625 456.8938,320.3281 Q456.8938,322.3438 457.6125,323.3125 Q458.3313,324.2656 459.925,324.2656 Q460.5188,324.2656 461.1438,324.1094 Q461.7688,323.9531 462.5969,323.5781 L462.5969,325.7969 Q461.8625,326.1094 461.0656,326.2656 Q460.2844,326.4219 459.5188,326.4219 Z " fill="#000000"/><text fill="#000000" font-family="sans-serif" font-size="14" lengthAdjust="spacing" textLength="181" x="478.95" y="324.3467">VentanaPrincipalController</text><line style="stroke:#181818;stroke-width:0.5;" x1="424" x2="684" y1="335.5" y2="335.5"/><rect fill="none" height="6" style="stroke:#C82930;stroke-width:1.0;" width="6" x="431" y="346.1484"/><text fill="#000000" font-family="sans-serif" font-size="14" lengthAdjust="spacing" textLength="229" x="443" y="352.4951">contenedorPrincipal: Borderpane</text><rect fill="none" height="6" style="stroke:#C82930;stroke-width:1.0;" width="6" x="431" y="362.4453"/><text fill="#000000" font-family="sans-serif" font-size="14" lengthAdjust="spacing" textLength="217" x="443" y="368.792">abrirEditorMenuItem: MenuItem</text><rect fill="none" height="6" style="stroke:#C82930;stroke-width:1.0;" width="6" x="431" y="378.7422"/><text fill="#000000" font-family="sans-serif" font-size="14" lengthAdjust="spacing" textLength="236" x="443" y="385.0889">abrirChooserMenuItem: MenuItem</text><rect fill="none" height="6" style="stroke:#C82930;stroke-width:1.0;" width="6" x="431" y="395.0391"/><text fill="#000000" font-family="sans-serif" font-size="14" lengthAdjust="spacing" textLength="209" x="443" y="401.3857">webViewmenuItem: MenuItem</text><rect fill="none" height="6" style="stroke:#C82930;stroke-width:1.0;" width="6" x="431" y="411.3359"/><text fill="#000000" font-family="sans-serif" font-size="14" lengthAdjust="spacing" textLength="220" x="443" y="417.6826">reporteAstMenuItem: MenuItem</text><rect fill="none" height="6" style="stroke:#C82930;stroke-width:1.0;" width="6" x="431" y="427.6328"/><text fill="#000000" font-family="sans-serif" font-size="14" lengthAdjust="spacing" textLength="231" x="443" y="433.9795">reporteDomMenuItem: MenuItem</text><rect fill="none" height="6" style="stroke:#C82930;stroke-width:1.0;" width="6" x="431" y="443.9297"/><text fill="#000000" font-family="sans-serif" font-size="14" lengthAdjust="spacing" textLength="179" x="443" y="450.2764">reporteErrores: MenuItem</text><line style="stroke:#181818;stroke-width:0.5;" x1="424" x2="684" y1="457.5781" y2="457.5781"/><ellipse cx="434" cy="471.2266" fill="#84BE84" rx="3" ry="3" style="stroke:#038048;stroke-width:1.0;"/><text fill="#000000" font-family="sans-serif" font-size="14" lengthAdjust="spacing" textLength="104" x="443" y="474.5732">inicialize(): void</text><ellipse cx="434" cy="487.5234" fill="#84BE84" rx="3" ry="3" style="stroke:#038048;stroke-width:1.0;"/><text fill="#000000" font-family="sans-serif" font-size="14" lengthAdjust="spacing" textLength="203" x="443" y="490.8701">cargarVista(path: String): void</text><ellipse cx="434" cy="503.8203" fill="#84BE84" rx="3" ry="3" style="stroke:#038048;stroke-width:1.0;"/><text fill="#000000" font-family="sans-serif" font-size="14" lengthAdjust="spacing" textLength="136" x="443" y="507.167">abrirChooser(): void</text></g><!--class VisorHtmlController--><g id="elem_VisorHtmlController"><rect codeLine="66" fill="#F1F1F1" height="96.8906" id="VisorHtmlController" rx="2.5" ry="2.5" style="stroke:#181818;stroke-width:0.5;" width="164" x="720" y="360.5"/><ellipse cx="735" cy="376.5" fill="#ADD1B2" rx="11" ry="11" style="stroke:#181818;stroke-width:1.0;"/><path d="M734.4688,383.4219 Q732.7188,383.4219 731.5781,382.6875 Q730.4531,381.9375 729.8906,380.5938 Q729.3438,379.2344 729.3438,377.4375 Q729.3438,375.4063 730,373.9531 Q730.6563,372.5 731.9375,371.7188 Q733.2188,370.9375 735.0938,370.9375 Q735.9844,370.9375 736.6563,371.125 Q737.3281,371.2969 738.0156,371.6406 L737.2031,373.6563 Q736.5781,373.3438 736.0313,373.2188 Q735.5,373.0938 735.0156,373.0938 Q733.8438,373.0938 733.1406,373.625 Q732.4375,374.1563 732.1406,375.1094 Q731.8438,376.0625 731.8438,377.3281 Q731.8438,379.3438 732.5625,380.3125 Q733.2813,381.2656 734.875,381.2656 Q735.4688,381.2656 736.0938,381.1094 Q736.7188,380.9531 737.5469,380.5781 L737.5469,382.7969 Q736.8125,383.1094 736.0156,383.2656 Q735.2344,383.4219 734.4688,383.4219 Z " fill="#000000"/><text fill="#000000" font-family="sans-serif" font-size="14" lengthAdjust="spacing" textLength="132" x="749" y="381.3467">VisorHtmlController</text><line style="stroke:#181818;stroke-width:0.5;" x1="721" x2="883" y1="392.5" y2="392.5"/><rect fill="none" height="6" style="stroke:#C82930;stroke-width:1.0;" width="6" x="728" y="403.1484"/><text fill="#000000" font-family="sans-serif" font-size="14" lengthAdjust="spacing" textLength="115" x="740" y="409.4951">inicioHtml: String</text><rect fill="none" height="6" style="stroke:#C82930;stroke-width:1.0;" width="6" x="728" y="419.4453"/><text fill="#000000" font-family="sans-serif" font-size="14" lengthAdjust="spacing" textLength="133" x="740" y="425.792">webView: WebView</text><line style="stroke:#181818;stroke-width:0.5;" x1="721" x2="883" y1="433.0938" y2="433.0938"/><ellipse cx="731" cy="446.7422" fill="#84BE84" rx="3" ry="3" style="stroke:#038048;stroke-width:1.0;"/><text fill="#000000" font-family="sans-serif" font-size="14" lengthAdjust="spacing" textLength="104" x="740" y="450.0889">inicialize(): void</text></g><!--class Main--><g id="elem_Main"><rect codeLine="74" fill="#F1F1F1" height="96.8906" id="Main" rx="2.5" ry="2.5" style="stroke:#181818;stroke-width:0.5;" width="195" x="361.5" y="115"/><ellipse cx="438.75" cy="131" fill="#ADD1B2" rx="11" ry="11" style="stroke:#181818;stroke-width:1.0;"/><path d="M438.2188,137.9219 Q436.4688,137.9219 435.3281,137.1875 Q434.2031,136.4375 433.6406,135.0938 Q433.0938,133.7344 433.0938,131.9375 Q433.0938,129.9063 433.75,128.4531 Q434.4063,127 435.6875,126.2188 Q436.9688,125.4375 438.8438,125.4375 Q439.7344,125.4375 440.4063,125.625 Q441.0781,125.7969 441.7656,126.1406 L440.9531,128.1563 Q440.3281,127.8438 439.7813,127.7188 Q439.25,127.5938 438.7656,127.5938 Q437.5938,127.5938 436.8906,128.125 Q436.1875,128.6563 435.8906,129.6094 Q435.5938,130.5625 435.5938,131.8281 Q435.5938,133.8438 436.3125,134.8125 Q437.0313,135.7656 438.625,135.7656 Q439.2188,135.7656 439.8438,135.6094 Q440.4688,135.4531 441.2969,135.0781 L441.2969,137.2969 Q440.5625,137.6094 439.7656,137.7656 Q438.9844,137.9219 438.2188,137.9219 Z " fill="#000000"/><text fill="#000000" font-family="sans-serif" font-size="14" lengthAdjust="spacing" textLength="32" x="459.25" y="135.8467">Main</text><line style="stroke:#181818;stroke-width:0.5;" x1="362.5" x2="555.5" y1="147" y2="147"/><line style="stroke:#181818;stroke-width:0.5;" x1="362.5" x2="555.5" y1="155" y2="155"/><ellipse cx="372.5" cy="168.6484" fill="#84BE84" rx="3" ry="3" style="stroke:#038048;stroke-width:1.0;"/><text fill="#000000" font-family="sans-serif" font-size="14" lengthAdjust="spacing" textLength="166" x="381.5" y="171.9951">start(stage: Stage): void</text><ellipse cx="372.5" cy="184.9453" fill="#84BE84" rx="3" ry="3" style="stroke:#038048;stroke-width:1.0;"/><text fill="#000000" font-family="sans-serif" font-size="14" lengthAdjust="spacing" textLength="78" x="381.5" y="188.292">stop(): void</text><ellipse cx="372.5" cy="201.2422" fill="#84BE84" rx="3" ry="3" style="stroke:#038048;stroke-width:1.0;"/><text fill="#000000" font-family="sans-serif" font-size="14" lengthAdjust="spacing" textLength="169" x="381.5" y="204.5889">main(args: String[]): void</text></g><!--class RutaVista--><g id="elem_RutaVista"><rect codeLine="82" fill="#F1F1F1" height="210.9688" id="RutaVista" rx="2.5" ry="2.5" style="stroke:#181818;stroke-width:0.5;" width="390" x="1995" y="591"/><ellipse cx="2153.25" cy="607" fill="#EB937F" rx="11" ry="11" style="stroke:#181818;stroke-width:1.0;"/><path d="M2149.6094,613.5 L2149.6094,601.3594 L2157.2656,601.3594 L2157.2656,603.4844 L2151.9844,603.4844 L2151.9844,606.1406 L2157,606.1406 L2157,608.2656 L2151.9844,608.2656 L2151.9844,611.375 L2157.2656,611.375 L2157.2656,613.5 L2149.6094,613.5 Z " fill="#000000"/><text fill="#000000" font-family="sans-serif" font-size="14" lengthAdjust="spacing" textLength="65" x="2173.75" y="611.8467">RutaVista</text><line style="stroke:#181818;stroke-width:0.5;" x1="1996" x2="2384" y1="623" y2="623"/><rect fill="none" height="6" style="stroke:#C82930;stroke-width:1.0;" width="6" x="2003" y="633.6484"/><text fill="#000000" font-family="sans-serif" font-size="14" lengthAdjust="spacing" textLength="111" x="2015" y="639.9951">path: final String</text><line style="stroke:#181818;stroke-width:0.5;" x1="1996" x2="2384" y1="647.2969" y2="647.2969"/><text fill="#000000" font-family="sans-serif" font-size="14" lengthAdjust="spacing" textLength="304" x="2015" y="664.292">VENTANA("/principal/ventana-principal.fxml"),</text><text fill="#000000" font-family="sans-serif" font-size="14" lengthAdjust="spacing" textLength="309" x="2015" y="680.5889">EDITOR_TEXTO("/principal/editor-texto.fxml"),</text><text fill="#000000" font-family="sans-serif" font-size="14" lengthAdjust="spacing" textLength="364" x="2015" y="696.8857">PESTA&#209;AS_EDITOR("/principal/pesta&#241;as-editor.fxml"),</text><text fill="#000000" font-family="sans-serif" font-size="14" lengthAdjust="spacing" textLength="262" x="2015" y="713.1826">WEB_VIEW("/principal/visor-html.fxml"),</text><text fill="#000000" font-family="sans-serif" font-size="14" lengthAdjust="spacing" textLength="300" x="2015" y="729.4795">REPORTE_AST("/principal/reporte-ast.fxml"),</text><text fill="#000000" font-family="sans-serif" font-size="14" lengthAdjust="spacing" textLength="317" x="2015" y="745.7764">REPORTE_DOM("/principal/reporte-dom.fxml"),</text><text fill="#000000" font-family="sans-serif" font-size="14" lengthAdjust="spacing" textLength="336" x="2015" y="762.0732">REPORTE_ERROR("/principal/reporte-error.fxml");</text><ellipse cx="2006" cy="775.0234" fill="#84BE84" rx="3" ry="3" style="stroke:#038048;stroke-width:1.0;"/><text fill="#000000" font-family="sans-serif" font-size="14" lengthAdjust="spacing" textLength="150" x="2015" y="778.3701">RutaVista(String path)</text><ellipse cx="2006" cy="791.3203" fill="#84BE84" rx="3" ry="3" style="stroke:#038048;stroke-width:1.0;"/><text fill="#000000" font-family="sans-serif" font-size="14" lengthAdjust="spacing" textLength="113" x="2015" y="794.667">getPath(): String</text></g><!--class ServerSocket--><g id="elem_ServerSocket"><rect fill="#F1F1F1" height="48" id="ServerSocket" rx="2.5" ry="2.5" style="stroke:#181818;stroke-width:0.5;" width="124" x="1463" y="1084"/><ellipse cx="1478" cy="1100" fill="#ADD1B2" rx="11" ry="11" style="stroke:#181818;stroke-width:1.0;"/><path d="M1477.4688,1106.9219 Q1475.7188,1106.9219 1474.5781,1106.1875 Q1473.4531,1105.4375 1472.8906,1104.0938 Q1472.3438,1102.7344 1472.3438,1100.9375 Q1472.3438,1098.9063 1473,1097.4531 Q1473.6563,1096 1474.9375,1095.2188 Q1476.2188,1094.4375 1478.0938,1094.4375 Q1478.9844,1094.4375 1479.6563,1094.625 Q1480.3281,1094.7969 1481.0156,1095.1406 L1480.2031,1097.1563 Q1479.5781,1096.8438 1479.0313,1096.7188 Q1478.5,1096.5938 1478.0156,1096.5938 Q1476.8438,1096.5938 1476.1406,1097.125 Q1475.4375,1097.6563 1475.1406,1098.6094 Q1474.8438,1099.5625 1474.8438,1100.8281 Q1474.8438,1102.8438 1475.5625,1103.8125 Q1476.2813,1104.7656 1477.875,1104.7656 Q1478.4688,1104.7656 1479.0938,1104.6094 Q1479.7188,1104.4531 1480.5469,1104.0781 L1480.5469,1106.2969 Q1479.8125,1106.6094 1479.0156,1106.7656 Q1478.2344,1106.9219 1477.4688,1106.9219 Z " fill="#000000"/><text fill="#000000" font-family="sans-serif" font-size="14" lengthAdjust="spacing" textLength="92" x="1492" y="1104.8467">ServerSocket</text><line style="stroke:#181818;stroke-width:0.5;" x1="1464" x2="1586" y1="1116" y2="1116"/><line style="stroke:#181818;stroke-width:0.5;" x1="1464" x2="1586" y1="1124" y2="1124"/></g><!--class Socket--><g id="elem_Socket"><rect fill="#F1F1F1" height="48" id="Socket" rx="2.5" ry="2.5" style="stroke:#181818;stroke-width:0.5;" width="80" x="1622" y="1084"/><ellipse cx="1637" cy="1100" fill="#ADD1B2" rx="11" ry="11" style="stroke:#181818;stroke-width:1.0;"/><path d="M1636.4688,1106.9219 Q1634.7188,1106.9219 1633.5781,1106.1875 Q1632.4531,1105.4375 1631.8906,1104.0938 Q1631.3438,1102.7344 1631.3438,1100.9375 Q1631.3438,1098.9063 1632,1097.4531 Q1632.6563,1096 1633.9375,1095.2188 Q1635.2188,1094.4375 1637.0938,1094.4375 Q1637.9844,1094.4375 1638.6563,1094.625 Q1639.3281,1094.7969 1640.0156,1095.1406 L1639.2031,1097.1563 Q1638.5781,1096.8438 1638.0313,1096.7188 Q1637.5,1096.5938 1637.0156,1096.5938 Q1635.8438,1096.5938 1635.1406,1097.125 Q1634.4375,1097.6563 1634.1406,1098.6094 Q1633.8438,1099.5625 1633.8438,1100.8281 Q1633.8438,1102.8438 1634.5625,1103.8125 Q1635.2813,1104.7656 1636.875,1104.7656 Q1637.4688,1104.7656 1638.0938,1104.6094 Q1638.7188,1104.4531 1639.5469,1104.0781 L1639.5469,1106.2969 Q1638.8125,1106.6094 1638.0156,1106.7656 Q1637.2344,1106.9219 1636.4688,1106.9219 Z " fill="#000000"/><text fill="#000000" font-family="sans-serif" font-size="14" lengthAdjust="spacing" textLength="48" x="1651" y="1104.8467">Socket</text><line style="stroke:#181818;stroke-width:0.5;" x1="1623" x2="1701" y1="1116" y2="1116"/><line style="stroke:#181818;stroke-width:0.5;" x1="1623" x2="1701" y1="1124" y2="1124"/></g><!--class DataInputStream--><g id="elem_DataInputStream"><rect fill="#F1F1F1" height="48" id="DataInputStream" rx="2.5" ry="2.5" style="stroke:#181818;stroke-width:0.5;" width="148" x="1737" y="1084"/><ellipse cx="1752" cy="1100" fill="#ADD1B2" rx="11" ry="11" style="stroke:#181818;stroke-width:1.0;"/><path d="M1751.4688,1106.9219 Q1749.7188,1106.9219 1748.5781,1106.1875 Q1747.4531,1105.4375 1746.8906,1104.0938 Q1746.3438,1102.7344 1746.3438,1100.9375 Q1746.3438,1098.9063 1747,1097.4531 Q1747.6563,1096 1748.9375,1095.2188 Q1750.2188,1094.4375 1752.0938,1094.4375 Q1752.9844,1094.4375 1753.6563,1094.625 Q1754.3281,1094.7969 1755.0156,1095.1406 L1754.2031,1097.1563 Q1753.5781,1096.8438 1753.0313,1096.7188 Q1752.5,1096.5938 1752.0156,1096.5938 Q1750.8438,1096.5938 1750.1406,1097.125 Q1749.4375,1097.6563 1749.1406,1098.6094 Q1748.8438,1099.5625 1748.8438,1100.8281 Q1748.8438,1102.8438 1749.5625,1103.8125 Q1750.2813,1104.7656 1751.875,1104.7656 Q1752.4688,1104.7656 1753.0938,1104.6094 Q1753.7188,1104.4531 1754.5469,1104.0781 L1754.5469,1106.2969 Q1753.8125,1106.6094 1753.0156,1106.7656 Q1752.2344,1106.9219 1751.4688,1106.9219 Z " fill="#000000"/><text fill="#000000" font-family="sans-serif" font-size="14" lengthAdjust="spacing" textLength="116" x="1766" y="1104.8467">DataInputStream</text><line style="stroke:#181818;stroke-width:0.5;" x1="1738" x2="1884" y1="1116" y2="1116"/><line style="stroke:#181818;stroke-width:0.5;" x1="1738" x2="1884" y1="1124" y2="1124"/></g><!--class DataOutputStream--><g id="elem_DataOutputStream"><rect fill="#F1F1F1" height="48" id="DataOutputStream" rx="2.5" ry="2.5" style="stroke:#181818;stroke-width:0.5;" width="161" x="1920.5" y="1084"/><ellipse cx="1935.5" cy="1100" fill="#ADD1B2" rx="11" ry="11" style="stroke:#181818;stroke-width:1.0;"/><path d="M1934.9688,1106.9219 Q1933.2188,1106.9219 1932.0781,1106.1875 Q1930.9531,1105.4375 1930.3906,1104.0938 Q1929.8438,1102.7344 1929.8438,1100.9375 Q1929.8438,1098.9063 1930.5,1097.4531 Q1931.1563,1096 1932.4375,1095.2188 Q1933.7188,1094.4375 1935.5938,1094.4375 Q1936.4844,1094.4375 1937.1563,1094.625 Q1937.8281,1094.7969 1938.5156,1095.1406 L1937.7031,1097.1563 Q1937.0781,1096.8438 1936.5313,1096.7188 Q1936,1096.5938 1935.5156,1096.5938 Q1934.3438,1096.5938 1933.6406,1097.125 Q1932.9375,1097.6563 1932.6406,1098.6094 Q1932.3438,1099.5625 1932.3438,1100.8281 Q1932.3438,1102.8438 1933.0625,1103.8125 Q1933.7813,1104.7656 1935.375,1104.7656 Q1935.9688,1104.7656 1936.5938,1104.6094 Q1937.2188,1104.4531 1938.0469,1104.0781 L1938.0469,1106.2969 Q1937.3125,1106.6094 1936.5156,1106.7656 Q1935.7344,1106.9219 1934.9688,1106.9219 Z " fill="#000000"/><text fill="#000000" font-family="sans-serif" font-size="14" lengthAdjust="spacing" textLength="129" x="1949.5" y="1104.8467">DataOutputStream</text><line style="stroke:#181818;stroke-width:0.5;" x1="1921.5" x2="2080.5" y1="1116" y2="1116"/><line style="stroke:#181818;stroke-width:0.5;" x1="1921.5" x2="2080.5" y1="1124" y2="1124"/></g><!--class TextArea--><g id="elem_TextArea"><rect fill="#F1F1F1" height="48" id="TextArea" rx="2.5" ry="2.5" style="stroke:#181818;stroke-width:0.5;" width="93" x="1141.5" y="672.5"/><ellipse cx="1156.5" cy="688.5" fill="#ADD1B2" rx="11" ry="11" style="stroke:#181818;stroke-width:1.0;"/><path d="M1155.9688,695.4219 Q1154.2188,695.4219 1153.0781,694.6875 Q1151.9531,693.9375 1151.3906,692.5938 Q1150.8438,691.2344 1150.8438,689.4375 Q1150.8438,687.4063 1151.5,685.9531 Q1152.1563,684.5 1153.4375,683.7188 Q1154.7188,682.9375 1156.5938,682.9375 Q1157.4844,682.9375 1158.1563,683.125 Q1158.8281,683.2969 1159.5156,683.6406 L1158.7031,685.6563 Q1158.0781,685.3438 1157.5313,685.2188 Q1157,685.0938 1156.5156,685.0938 Q1155.3438,685.0938 1154.6406,685.625 Q1153.9375,686.1563 1153.6406,687.1094 Q1153.3438,688.0625 1153.3438,689.3281 Q1153.3438,691.3438 1154.0625,692.3125 Q1154.7813,693.2656 1156.375,693.2656 Q1156.9688,693.2656 1157.5938,693.1094 Q1158.2188,692.9531 1159.0469,692.5781 L1159.0469,694.7969 Q1158.3125,695.1094 1157.5156,695.2656 Q1156.7344,695.4219 1155.9688,695.4219 Z " fill="#000000"/><text fill="#000000" font-family="sans-serif" font-size="14" lengthAdjust="spacing" textLength="61" x="1170.5" y="693.3467">TextArea</text><line style="stroke:#181818;stroke-width:0.5;" x1="1142.5" x2="1233.5" y1="704.5" y2="704.5"/><line style="stroke:#181818;stroke-width:0.5;" x1="1142.5" x2="1233.5" y1="712.5" y2="712.5"/></g><!--class Label--><g id="elem_Label"><rect fill="#F1F1F1" height="48" id="Label" rx="2.5" ry="2.5" style="stroke:#181818;stroke-width:0.5;" width="68" x="916" y="672.5"/><ellipse cx="931" cy="688.5" fill="#ADD1B2" rx="11" ry="11" style="stroke:#181818;stroke-width:1.0;"/><path d="M930.4688,695.4219 Q928.7188,695.4219 927.5781,694.6875 Q926.4531,693.9375 925.8906,692.5938 Q925.3438,691.2344 925.3438,689.4375 Q925.3438,687.4063 926,685.9531 Q926.6563,684.5 927.9375,683.7188 Q929.2188,682.9375 931.0938,682.9375 Q931.9844,682.9375 932.6563,683.125 Q933.3281,683.2969 934.0156,683.6406 L933.2031,685.6563 Q932.5781,685.3438 932.0313,685.2188 Q931.5,685.0938 931.0156,685.0938 Q929.8438,685.0938 929.1406,685.625 Q928.4375,686.1563 928.1406,687.1094 Q927.8438,688.0625 927.8438,689.3281 Q927.8438,691.3438 928.5625,692.3125 Q929.2813,693.2656 930.875,693.2656 Q931.4688,693.2656 932.0938,693.1094 Q932.7188,692.9531 933.5469,692.5781 L933.5469,694.7969 Q932.8125,695.1094 932.0156,695.2656 Q931.2344,695.4219 930.4688,695.4219 Z " fill="#000000"/><text fill="#000000" font-family="sans-serif" font-size="14" lengthAdjust="spacing" textLength="36" x="945" y="693.3467">Label</text><line style="stroke:#181818;stroke-width:0.5;" x1="917" x2="983" y1="704.5" y2="704.5"/><line style="stroke:#181818;stroke-width:0.5;" x1="917" x2="983" y1="712.5" y2="712.5"/></g><!--class ListView--><g id="elem_ListView"><rect fill="#F1F1F1" height="48" id="ListView" rx="2.5" ry="2.5" style="stroke:#181818;stroke-width:0.5;" width="87" x="1019.5" y="672.5"/><ellipse cx="1034.5" cy="688.5" fill="#ADD1B2" rx="11" ry="11" style="stroke:#181818;stroke-width:1.0;"/><path d="M1033.9688,695.4219 Q1032.2188,695.4219 1031.0781,694.6875 Q1029.9531,693.9375 1029.3906,692.5938 Q1028.8438,691.2344 1028.8438,689.4375 Q1028.8438,687.4063 1029.5,685.9531 Q1030.1563,684.5 1031.4375,683.7188 Q1032.7188,682.9375 1034.5938,682.9375 Q1035.4844,682.9375 1036.1563,683.125 Q1036.8281,683.2969 1037.5156,683.6406 L1036.7031,685.6563 Q1036.0781,685.3438 1035.5313,685.2188 Q1035,685.0938 1034.5156,685.0938 Q1033.3438,685.0938 1032.6406,685.625 Q1031.9375,686.1563 1031.6406,687.1094 Q1031.3438,688.0625 1031.3438,689.3281 Q1031.3438,691.3438 1032.0625,692.3125 Q1032.7813,693.2656 1034.375,693.2656 Q1034.9688,693.2656 1035.5938,693.1094 Q1036.2188,692.9531 1037.0469,692.5781 L1037.0469,694.7969 Q1036.3125,695.1094 1035.5156,695.2656 Q1034.7344,695.4219 1033.9688,695.4219 Z " fill="#000000"/><text fill="#000000" font-family="sans-serif" font-size="14" lengthAdjust="spacing" textLength="55" x="1048.5" y="693.3467">ListView</text><line style="stroke:#181818;stroke-width:0.5;" x1="1020.5" x2="1105.5" y1="704.5" y2="704.5"/><line style="stroke:#181818;stroke-width:0.5;" x1="1020.5" x2="1105.5" y1="712.5" y2="712.5"/></g><!--class Borderpane--><g id="elem_Borderpane"><rect fill="#F1F1F1" height="48" id="Borderpane" rx="2.5" ry="2.5" style="stroke:#181818;stroke-width:0.5;" width="114" x="592" y="139.5"/><ellipse cx="607" cy="155.5" fill="#ADD1B2" rx="11" ry="11" style="stroke:#181818;stroke-width:1.0;"/><path d="M606.4688,162.4219 Q604.7188,162.4219 603.5781,161.6875 Q602.4531,160.9375 601.8906,159.5938 Q601.3438,158.2344 601.3438,156.4375 Q601.3438,154.4063 602,152.9531 Q602.6563,151.5 603.9375,150.7188 Q605.2188,149.9375 607.0938,149.9375 Q607.9844,149.9375 608.6563,150.125 Q609.3281,150.2969 610.0156,150.6406 L609.2031,152.6563 Q608.5781,152.3438 608.0313,152.2188 Q607.5,152.0938 607.0156,152.0938 Q605.8438,152.0938 605.1406,152.625 Q604.4375,153.1563 604.1406,154.1094 Q603.8438,155.0625 603.8438,156.3281 Q603.8438,158.3438 604.5625,159.3125 Q605.2813,160.2656 606.875,160.2656 Q607.4688,160.2656 608.0938,160.1094 Q608.7188,159.9531 609.5469,159.5781 L609.5469,161.7969 Q608.8125,162.1094 608.0156,162.2656 Q607.2344,162.4219 606.4688,162.4219 Z " fill="#000000"/><text fill="#000000" font-family="sans-serif" font-size="14" lengthAdjust="spacing" textLength="82" x="621" y="160.3467">Borderpane</text><line style="stroke:#181818;stroke-width:0.5;" x1="593" x2="705" y1="171.5" y2="171.5"/><line style="stroke:#181818;stroke-width:0.5;" x1="593" x2="705" y1="179.5" y2="179.5"/></g><!--class MenuItem--><g id="elem_MenuItem"><rect fill="#F1F1F1" height="48" id="MenuItem" rx="2.5" ry="2.5" style="stroke:#181818;stroke-width:0.5;" width="101" x="1269.5" y="672.5"/><ellipse cx="1284.5" cy="688.5" fill="#ADD1B2" rx="11" ry="11" style="stroke:#181818;stroke-width:1.0;"/><path d="M1283.9688,695.4219 Q1282.2188,695.4219 1281.0781,694.6875 Q1279.9531,693.9375 1279.3906,692.5938 Q1278.8438,691.2344 1278.8438,689.4375 Q1278.8438,687.4063 1279.5,685.9531 Q1280.1563,684.5 1281.4375,683.7188 Q1282.7188,682.9375 1284.5938,682.9375 Q1285.4844,682.9375 1286.1563,683.125 Q1286.8281,683.2969 1287.5156,683.6406 L1286.7031,685.6563 Q1286.0781,685.3438 1285.5313,685.2188 Q1285,685.0938 1284.5156,685.0938 Q1283.3438,685.0938 1282.6406,685.625 Q1281.9375,686.1563 1281.6406,687.1094 Q1281.3438,688.0625 1281.3438,689.3281 Q1281.3438,691.3438 1282.0625,692.3125 Q1282.7813,693.2656 1284.375,693.2656 Q1284.9688,693.2656 1285.5938,693.1094 Q1286.2188,692.9531 1287.0469,692.5781 L1287.0469,694.7969 Q1286.3125,695.1094 1285.5156,695.2656 Q1284.7344,695.4219 1283.9688,695.4219 Z " fill="#000000"/><text fill="#000000" font-family="sans-serif" font-size="14" lengthAdjust="spacing" textLength="69" x="1298.5" y="693.3467">MenuItem</text><line style="stroke:#181818;stroke-width:0.5;" x1="1270.5" x2="1369.5" y1="704.5" y2="704.5"/><line style="stroke:#181818;stroke-width:0.5;" x1="1270.5" x2="1369.5" y1="712.5" y2="712.5"/></g><!--class MenuBar--><g id="elem_MenuBar"><rect fill="#F1F1F1" height="48" id="MenuBar" rx="2.5" ry="2.5" style="stroke:#181818;stroke-width:0.5;" width="94" x="1406" y="672.5"/><ellipse cx="1421" cy="688.5" fill="#ADD1B2" rx="11" ry="11" style="stroke:#181818;stroke-width:1.0;"/><path d="M1420.4688,695.4219 Q1418.7188,695.4219 1417.5781,694.6875 Q1416.4531,693.9375 1415.8906,692.5938 Q1415.3438,691.2344 1415.3438,689.4375 Q1415.3438,687.4063 1416,685.9531 Q1416.6563,684.5 1417.9375,683.7188 Q1419.2188,682.9375 1421.0938,682.9375 Q1421.9844,682.9375 1422.6563,683.125 Q1423.3281,683.2969 1424.0156,683.6406 L1423.2031,685.6563 Q1422.5781,685.3438 1422.0313,685.2188 Q1421.5,685.0938 1421.0156,685.0938 Q1419.8438,685.0938 1419.1406,685.625 Q1418.4375,686.1563 1418.1406,687.1094 Q1417.8438,688.0625 1417.8438,689.3281 Q1417.8438,691.3438 1418.5625,692.3125 Q1419.2813,693.2656 1420.875,693.2656 Q1421.4688,693.2656 1422.0938,693.1094 Q1422.7188,692.9531 1423.5469,692.5781 L1423.5469,694.7969 Q1422.8125,695.1094 1422.0156,695.2656 Q1421.2344,695.4219 1420.4688,695.4219 Z " fill="#000000"/><text fill="#000000" font-family="sans-serif" font-size="14" lengthAdjust="spacing" textLength="62" x="1435" y="693.3467">MenuBar</text><line style="stroke:#181818;stroke-width:0.5;" x1="1407" x2="1499" y1="704.5" y2="704.5"/><line style="stroke:#181818;stroke-width:0.5;" x1="1407" x2="1499" y1="712.5" y2="712.5"/></g><!--class WebView--><g id="elem_WebView"><rect fill="#F1F1F1" height="48" id="WebView" rx="2.5" ry="2.5" style="stroke:#181818;stroke-width:0.5;" width="95" x="2420.5" y="672.5"/><ellipse cx="2435.5" cy="688.5" fill="#ADD1B2" rx="11" ry="11" style="stroke:#181818;stroke-width:1.0;"/><path d="M2434.9688,695.4219 Q2433.2188,695.4219 2432.0781,694.6875 Q2430.9531,693.9375 2430.3906,692.5938 Q2429.8438,691.2344 2429.8438,689.4375 Q2429.8438,687.4063 2430.5,685.9531 Q2431.1563,684.5 2432.4375,683.7188 Q2433.7188,682.9375 2435.5938,682.9375 Q2436.4844,682.9375 2437.1563,683.125 Q2437.8281,683.2969 2438.5156,683.6406 L2437.7031,685.6563 Q2437.0781,685.3438 2436.5313,685.2188 Q2436,685.0938 2435.5156,685.0938 Q2434.3438,685.0938 2433.6406,685.625 Q2432.9375,686.1563 2432.6406,687.1094 Q2432.3438,688.0625 2432.3438,689.3281 Q2432.3438,691.3438 2433.0625,692.3125 Q2433.7813,693.2656 2435.375,693.2656 Q2435.9688,693.2656 2436.5938,693.1094 Q2437.2188,692.9531 2438.0469,692.5781 L2438.0469,694.7969 Q2437.3125,695.1094 2436.5156,695.2656 Q2435.7344,695.4219 2434.9688,695.4219 Z " fill="#000000"/><text fill="#000000" font-family="sans-serif" font-size="14" lengthAdjust="spacing" textLength="63" x="2449.5" y="693.3467">WebView</text><line style="stroke:#181818;stroke-width:0.5;" x1="2421.5" x2="2514.5" y1="704.5" y2="704.5"/><line style="stroke:#181818;stroke-width:0.5;" x1="2421.5" x2="2514.5" y1="712.5" y2="712.5"/></g><!--class Application--><g id="elem_Application"><rect fill="#F1F1F1" height="48" id="Application" rx="2.5" ry="2.5" style="stroke:#181818;stroke-width:0.5;" width="107" x="405.5" y="7"/><ellipse cx="420.5" cy="23" fill="#ADD1B2" rx="11" ry="11" style="stroke:#181818;stroke-width:1.0;"/><path d="M419.9688,29.9219 Q418.2188,29.9219 417.0781,29.1875 Q415.9531,28.4375 415.3906,27.0938 Q414.8438,25.7344 414.8438,23.9375 Q414.8438,21.9063 415.5,20.4531 Q416.1563,19 417.4375,18.2188 Q418.7188,17.4375 420.5938,17.4375 Q421.4844,17.4375 422.1563,17.625 Q422.8281,17.7969 423.5156,18.1406 L422.7031,20.1563 Q422.0781,19.8438 421.5313,19.7188 Q421,19.5938 420.5156,19.5938 Q419.3438,19.5938 418.6406,20.125 Q417.9375,20.6563 417.6406,21.6094 Q417.3438,22.5625 417.3438,23.8281 Q417.3438,25.8438 418.0625,26.8125 Q418.7813,27.7656 420.375,27.7656 Q420.9688,27.7656 421.5938,27.6094 Q422.2188,27.4531 423.0469,27.0781 L423.0469,29.2969 Q422.3125,29.6094 421.5156,29.7656 Q420.7344,29.9219 419.9688,29.9219 Z " fill="#000000"/><text fill="#000000" font-family="sans-serif" font-size="14" lengthAdjust="spacing" textLength="75" x="434.5" y="27.8467">Application</text><line style="stroke:#181818;stroke-width:0.5;" x1="406.5" x2="511.5" y1="39" y2="39"/><line style="stroke:#181818;stroke-width:0.5;" x1="406.5" x2="511.5" y1="47" y2="47"/></g><!--reverse link Conexion to ServerSocket--><g id="link_Conexion_ServerSocket"><path codeLine="96" d="M1623.3473,1031.3849 C1594.8673,1053.2849 1575.72,1068 1555.11,1083.85 " fill="none" id="Conexion-backto-ServerSocket" style="stroke:#181818;stroke-width:1.0;"/><polygon fill="#181818" points="1632.86,1024.07,1625.6653,1024.5565,1623.3473,1031.3849,1630.5419,1030.8984,1632.86,1024.07" style="stroke:#181818;stroke-width:1.0;"/></g><!--reverse link Conexion to Socket--><g id="link_Conexion_Socket"><path codeLine="97" d="M1695.1427,1034.9708 C1685.0627,1056.8708 1679.94,1068 1672.65,1083.85 " fill="none" id="Conexion-backto-Socket" style="stroke:#181818;stroke-width:1.0;"/><polygon fill="#181818" points="1700.16,1024.07,1694.0178,1027.8479,1695.1427,1034.9708,1701.2849,1031.1928,1700.16,1024.07" style="stroke:#181818;stroke-width:1.0;"/></g><!--reverse link Conexion to DataInputStream--><g id="link_Conexion_DataInputStream"><path codeLine="98" d="M1778.3096,1034.9971 C1788.2496,1056.8971 1793.3,1068 1800.49,1083.85 " fill="none" id="Conexion-backto-DataInputStream" style="stroke:#181818;stroke-width:1.0;"/><polygon fill="#181818" points="1773.35,1024.07,1772.1874,1031.1868,1778.3096,1034.9971,1779.4722,1027.8804,1773.35,1024.07" style="stroke:#181818;stroke-width:1.0;"/></g><!--reverse link Conexion to DataOutputStream--><g id="link_Conexion_DataOutputStream"><path codeLine="99" d="M1876.8906,1030.3743 C1912.3606,1052.2743 1937.84,1068 1963.51,1083.85 " fill="none" id="Conexion-backto-DataOutputStream" style="stroke:#181818;stroke-width:1.0;"/><polygon fill="#181818" points="1866.68,1024.07,1869.6839,1030.6257,1876.8906,1030.3743,1873.8867,1023.8186,1866.68,1024.07" style="stroke:#181818;stroke-width:1.0;"/></g><!--reverse link Cliente to Conexion--><g id="link_Cliente_Conexion"><path codeLine="100" d="M1737,812.13 C1737,834.56 1737,840.19 1737,861.81 " fill="none" id="Cliente-backto-Conexion" style="stroke:#181818;stroke-width:1.0;"/><polygon fill="none" points="1737,794.13,1731,812.13,1743,812.13,1737,794.13" style="stroke:#181818;stroke-width:1.0;"/></g><!--reverse link EditorTextoController to TextArea--><g id="link_EditorTextoController_TextArea"><path codeLine="101" d="M399.4058,529.2381 C405.3558,531.3881 400.04,529.27 406,531 C444.32,542.13 1090.9,525.72 1124,548 C1166.03,576.29 1180.63,638.61 1185.57,672.48 " fill="none" id="EditorTextoController-backto-TextArea" style="stroke:#181818;stroke-width:1.0;"/><polygon fill="#181818" points="388.12,525.16,392.4035,530.961,399.4058,529.2381,395.1223,523.4371,388.12,525.16" style="stroke:#181818;stroke-width:1.0;"/></g><!--reverse link EditorTextoController to Label--><g id="link_EditorTextoController_Label"><path codeLine="102" d="M399.4136,529.1916 C405.3636,531.3616 400.04,529.23 406,531 C458.66,546.61 855.92,515.24 900,548 C939.28,577.19 948.01,638.84 949.75,672.46 " fill="none" id="EditorTextoController-backto-Label" style="stroke:#181818;stroke-width:1.0;"/><polygon fill="#181818" points="388.14,525.08,392.4063,530.8937,399.4136,529.1916,395.1473,523.3779,388.14,525.08" style="stroke:#181818;stroke-width:1.0;"/></g><!--reverse link EditorTextoController to ListView--><g id="link_EditorTextoController_ListView"><path codeLine="103" d="M399.4158,529.2081 C405.3658,531.3581 400.04,529.25 406,531 C437.79,540.32 974.73,529.2 1002,548 C1043.29,576.47 1056.69,638.42 1060.99,672.27 " fill="none" id="EditorTextoController-backto-ListView" style="stroke:#181818;stroke-width:1.0;"/><polygon fill="#181818" points="388.13,525.13,392.4135,530.931,399.4158,529.2081,395.1323,523.4071,388.13,525.13" style="stroke:#181818;stroke-width:1.0;"/></g><!--link Borderpane to VentanaPrincipalController--><g id="link_Borderpane_VentanaPrincipalController"><path codeLine="104" d="M639.89,187.85 C629.44,214.63 615.9517,249.2107 599.2217,292.0907 " fill="none" id="Borderpane-to-VentanaPrincipalController" style="stroke:#181818;stroke-width:1.0;"/><polygon fill="#181818" points="594.86,303.27,600.7673,299.1343,599.2217,292.0907,593.3144,296.2265,594.86,303.27" style="stroke:#181818;stroke-width:1.0;"/></g><!--reverse link VentanaPrincipalController to MenuItem--><g id="link_VentanaPrincipalController_MenuItem"><path codeLine="105" d="M679.5412,520.7706 C690.4712,527.1806 691.45,526.7 703,531 C760.19,552.3 1201.12,514.31 1252,548 C1294.67,576.26 1311.02,638.59 1316.92,672.47 " fill="none" id="VentanaPrincipalController-backto-MenuItem" style="stroke:#181818;stroke-width:1.0;"/><polygon fill="#181818" points="669.19,514.7,672.3421,521.1857,679.5412,520.7706,676.3891,514.2849,669.19,514.7" style="stroke:#181818;stroke-width:1.0;"/></g><!--reverse link VentanaPrincipalController to MenuBar--><g id="link_VentanaPrincipalController_MenuBar"><path codeLine="106" d="M679.068,520.5961 C690.138,527.0961 691.28,526.67 703,531 C738.71,544.18 1356.37,526.81 1388,548 C1430.2,576.27 1445.23,638.6 1450.41,672.48 " fill="none" id="VentanaPrincipalController-backto-MenuBar" style="stroke:#181818;stroke-width:1.0;"/><polygon fill="#181818" points="668.72,514.52,671.8687,521.0074,679.068,520.5961,675.9194,514.1087,668.72,514.52" style="stroke:#181818;stroke-width:1.0;"/></g><!--link VentanaPrincipalController to RutaVista--><g id="link_VentanaPrincipalController_RutaVista"><path codeLine="107" d="M668.67,514.66 C679.75,521.13 691.25,526.74 703,531 C768.4,554.71 1888.28,528.31 1955,548 C1987.8,557.68 2015.2978,570.316 2045.4078,587.886 " fill="none" id="VentanaPrincipalController-to-RutaVista" style="stroke:#181818;stroke-width:1.0;"/><polygon fill="#181818" points="2050.59,590.91,2044.8326,582.9192,2046.2715,588.39,2040.8007,589.8289,2050.59,590.91" style="stroke:#181818;stroke-width:1.0;"/></g><!--reverse link VentanaPrincipalController to ReporteAstController--><g id="link_VentanaPrincipalController_ReporteAstController"><path codeLine="108" d="M647.4105,523.999 C656.3005,535.199 657.66,537.09 666,548 C699.03,591.22 735.67,643.17 756.07,672.46 " fill="none" id="VentanaPrincipalController-backto-ReporteAstController" style="stroke:#181818;stroke-width:1.0;"/><polygon fill="#181818" points="639.95,514.6,640.5472,521.7863,647.4105,523.999,646.8132,516.8127,639.95,514.6" style="stroke:#181818;stroke-width:1.0;"/></g><!--reverse link VentanaPrincipalController to ReporteDomController--><g id="link_VentanaPrincipalController_ReporteDomController"><path codeLine="109" d="M461.6794,524.2609 C452.8094,535.4109 451.43,537.22 443,548 C408.94,591.57 370.09,643.18 348.26,672.35 " fill="none" id="VentanaPrincipalController-backto-ReporteDomController" style="stroke:#181818;stroke-width:1.0;"/><polygon fill="#181818" points="469.15,514.87,462.2844,517.0753,461.6794,524.2609,468.545,522.0557,469.15,514.87" style="stroke:#181818;stroke-width:1.0;"/></g><!--reverse link VentanaPrincipalController to ReporteErrorController--><g id="link_VentanaPrincipalController_ReporteErrorController"><path codeLine="110" d="M554,526.69 C554,583.98 554,638.1 554,672.3 " fill="none" id="VentanaPrincipalController-backto-ReporteErrorController" style="stroke:#181818;stroke-width:1.0;"/><polygon fill="#181818" points="554,514.69,550,520.69,554,526.69,558,520.69,554,514.69" style="stroke:#181818;stroke-width:1.0;"/></g><!--reverse link VentanaPrincipalController to Cliente--><g id="link_VentanaPrincipalController_Cliente"><path codeLine="111" d="M679.0545,520.635 C690.1345,527.125 691.27,526.7 703,531 C788.04,562.18 1431.65,520.65 1518,548 C1553.51,559.25 1588.53,578.21 1619.81,598.87 " fill="none" id="VentanaPrincipalController-backto-Cliente" style="stroke:#181818;stroke-width:1.0;"/><polygon fill="#181818" points="668.7,514.57,671.8556,521.054,679.0545,520.635,675.8989,514.151,668.7,514.57" style="stroke:#181818;stroke-width:1.0;"/></g><!--reverse link VisorHtmlController to WebView--><g id="link_VisorHtmlController_WebView"><path codeLine="112" d="M896.2047,412.6379 C1205.5547,421.8679 2276.35,459.9 2401,548 C2442.46,577.3 2458.76,638.61 2464.77,672.22 " fill="none" id="VisorHtmlController-backto-WebView" style="stroke:#181818;stroke-width:1.0;"/><polygon fill="#181818" points="884.21,412.28,890.088,416.4572,896.2047,412.6379,890.3266,408.4607,884.21,412.28" style="stroke:#181818;stroke-width:1.0;"/></g><!--link Application to Main--><g id="link_Application_Main"><path codeLine="113" d="M459,55.03 C459,71.57 459,76.44 459,96.84 " fill="none" id="Application-to-Main" style="stroke:#181818;stroke-width:1.0;"/><polygon fill="none" points="459,114.84,465,96.84,453,96.84,459,114.84" style="stroke:#181818;stroke-width:1.0;"/></g><!--link Main to VentanaPrincipalController--><g id="link_Main_VentanaPrincipalController"><path codeLine="114" d="M477.54,212.03 C487.72,238.12 498.5896,265.9702 511.0096,297.8102 " fill="none" id="Main-to-VentanaPrincipalController" style="stroke:#181818;stroke-width:1.0;stroke-dasharray:7.0,7.0;"/><polygon fill="#181818" points="513.19,303.4,513.6459,293.5617,511.373,298.7418,506.1928,296.4689,513.19,303.4" style="stroke:#181818;stroke-width:1.0;"/></g><!--SRC=[ZLPTRkCs47xFAOZqHTwiilkuKBS155l06arYmrQT0aKHCFAipIv52XJbpVRd43rApx0Nwr0I5L6MRFd1fZdVaCDlFiumeyaNkWEII04lJ0hormN1Jy9fdfCfPo0qr7FcunCcSar5mcXWpIrZFUDDchahiWCzjpxUvDZhYe0uCAhMahE4wMBhfQ3bLWPahHKJkxSa1P7JFy1EJEp0tSGR0SjaFWv7TR8V0zm21ppl26G2Ib4rhMasH1masvQ0VoxQdBk9g7XT_XAjuWNvYNnu_-5zO9ALQyo4Ra4-BTOn0YwvJ2ZVupalBQuJoWya1tK0v3lv0XeZRVrhWwovQwZFEWDUUGPaHZMTYwpGk1FGj8MjCXloTVIAN1Jw67hLdDlJB6joFwdvGOQoLw5g9Ja7bJjQZRPCInN3YvRJ1kAGgD4Mugu1YUjHovWYOvYV5MHIQRYZpy03KlwqG8daHIheW5KKAIXvnuJPuexbUiFWwyVg83UTE6IFGfX0_LFE_WH77PMH9hemDgeUocscLIWU7F0o1UHd-1QPqNd7ChwU3NAMA2aCRfqOydeWCYcujlPRgdeWU0yte3H33JOmFAeTjXTxrY2WIjZmRQZp4URQIUeWS2RJSS18AQdEG3T8A1LqYNbAM4RvWAwC8l4eMwaQP41kfTg2ogXebqVwh9YgX7eFefXhI0DYHrtST2ybtjIJmA_mR4IMdiAeXiBx4J0aS0oif0_o7iWP7ITKxQZQuEsW7bRPVQjaTeNR8c5O8BYIL9zqEfISCXXf04Sthg4l88_LuFmXd5AKsNGxXUYUidRnnfk5TqPx-Bqh6mJ-zDm-BRCUjb9SoqF6SXlyRxyFHbDencr9nAIaP5LeMXBTYcOJFSJXG-XTlck2VtUePEutCzUVNr9-ENdRU4MpURnOFSNHh_72SOLIotvPqOwybj4w3h__6wwVAd_7CmCCxFj_DFUhDOwy7wFRfyqyUdH3DTdszvZD8_mgMYvMSVGKhcF7fHQiJtCzw3DRtFVwR6Kww1EjLfqZMIymTwFs-x6bjahkdvb0mHmL_oPPNcKgqPrdr1AdFFTjKIgWUJAyyNstdRkMdhbkwpuoEjtQlWS__erM2xtexxncWQRF3aEg9dh2NlVHYnF5-8rVP7wxufx4-gyrQmJEDAqJCD-_UKtTkVNwcjb87wUlZVJfjBXpNlPTtbTHZTtMoBA-eG8Cvs6MuQETQYE3Slxw-kP4s_mV]--></g></svg>